<svg xmlns="http://www.w3.org/2000/svg" viewBox="0 0 648.42 698.48"><defs><style>.cls-1{fill:#DFDFDF;}</style></defs><title>Fichier 2</title><g id="Calque_2" data-name="Calque 2"><g id="Layer_1" data-name="Layer 1"><path class="cls-1" d="M509.1,356.38l36.5-36.51a136.66,136.66,0,0,0,0-193.33L448.94,29.87l-96.67,96.67a136.7,136.7,0,0,0,0,193.33L512,479.56l6.34-23.71L367.29,304.79a115.29,115.29,0,0,1,0-163.17l81.59-81.57,81.58,81.57a115.44,115.44,0,0,1,0,163.17L494,341.29l15,15Zm-170.43,29-13.34-49.86a136.36,136.36,0,0,0-63.7-83h0a136.3,136.3,0,0,0-103.75-13.6l-132,35.39,35.4,132.05a136.28,136.28,0,0,0,63.7,83h0A136.24,136.24,0,0,0,228.71,503l218.18-58.49L429.51,427.1,223.2,482.36a114.91,114.91,0,0,1-87.55-11.55h-.06a115.15,115.15,0,0,1-53.77-70.1L52,289.27,163.4,259.41A115.43,115.43,0,0,1,304.72,341l13.34,49.86,20.55-5.54ZM464.15,461.8,407.46,477l-15.21,56.75,41.54,41.55,56.75-15.23,15.21-56.66-41.54-41.55Zm-80.4,21.55L360,489.74,304.77,696.06l-.61,2.29h-22.3c.94-2.55,1.74-5.15,2.49-7.83l52.09-194.45-23.72,6.39L263.8,685.07a70.08,70.08,0,0,1-5,13.34h-25a51.16,51.16,0,0,0,9.44-18.81l13.34-49.85L206.74,616.4a51.6,51.6,0,0,0-63.27,36.51L131.3,698.48h-22l13.66-51a72.85,72.85,0,0,1,89.22-51.53l49.84,13.34,5.54-20.55-49.86-13.34a93.67,93.67,0,0,0-71.46,9.37h0a94,94,0,0,0-43.89,57.18L87.23,698.46h-22l16.64-62a115.07,115.07,0,0,1,53.76-70.1h.06a115.18,115.18,0,0,1,87.54-11.55l49.92,13.35,5.53-20.55-49.86-13.34a136.53,136.53,0,0,0-103.74,13.6h0a136.33,136.33,0,0,0-63.71,83L43.27,698.41h-22l19.56-73.09a157.36,157.36,0,0,1,73.57-95.84h.06a154.37,154.37,0,0,1,22.91-10.87,166.59,166.59,0,0,1-22.91-10.86h-.06a157.34,157.34,0,0,1-73.57-95.86L0,259.34l152.54-40.86A157.33,157.33,0,0,1,272.3,234.25h.07a154,154,0,0,1,20.79,14.36,155.53,155.53,0,0,1-2-25.22A157.43,157.43,0,0,1,337.37,111.7L449.07,0,560.76,111.7A157.69,157.69,0,0,1,605,248.61a161.34,161.34,0,0,1,20.8-14.36h.06a155.84,155.84,0,0,1,22.6-10.73v22.9c-4.1,1.87-8.13,3.92-12,6.16h0a136.43,136.43,0,0,0-63.7,83L514.19,553.75l23.72-6.39,55.25-206.31a114.81,114.81,0,0,1,53.77-70H647l1.37-.75v25.21a93.86,93.86,0,0,0-34.65,51.09L561.63,541l23.77-6.32,48.93-182.61a72.68,72.68,0,0,1,14-27.38v57l-6.9,25.77,6.9,1.86v22L636,428l-5.54,20.55,18,4.78v22L625,469.07l-5.52,20.55,28.93,7.76v42.41L451.17,592.62,468.55,610l179.87-48.19v22L485.94,627.32l17.38,17.39,145.1-38.86v22l-6.89,1.86,6.89,25.77v42.9h-9.06a77.1,77.1,0,0,1-5-13.35L621,635.15l-20.55,5.52,13.35,49.85c.74,2.68,1.55,5.28,2.48,7.83H594l-.68-2.29-13.35-49.87-20.55,5.54,12.54,46.68H527L386,557.48l-6.33,23.72L496.93,698.41H466.88l-93.5-93.5-6.33,23.71,69.78,69.79H401.44l2.67-2.67-15-15L371.4,698.41h-45l57.62-215Zm-94.87,25.39-36.44,9.75L284,526.92l4.84-18.19Zm61.83-160.37,8.45,31.54,18.2-4.84-26.65-26.63Zm44,44L212.08,441.25a72.85,72.85,0,0,1-89.22-51.53L104,319.31l70.4-18.87A72.85,72.85,0,0,1,263.61,352L277,401.82l20.56-5.53-13.36-49.85A94.08,94.08,0,0,0,168.8,279.89l-91,24.4,24.4,90.95a93.77,93.77,0,0,0,43.9,57.19h0a94,94,0,0,0,71.46,9.37l194.45-52.09Zm-138.2,15L243.12,357.5A51.58,51.58,0,0,0,179.86,321L130,334.34l13.36,49.85a51.62,51.62,0,0,0,63.26,36.52Zm104,244.87-9.75,36.38,23.1-23.1-13.35-13.28ZM520.59,662l26.63,26.64-8.44-31.54-18.19,4.83Zm88.47-133.73,36.44-9.74L614,510l-4.9,18.19ZM547.22,348.3l-23.09,23.1,13.34,13.29,9.75-36.39Zm-16.08,60.11L397.47,274.74a72.84,72.84,0,0,1,0-103.06L449,120.14l51.53,51.54a72.84,72.84,0,0,1,0,103.06L464,311.25l15,15,36.51-36.51a94.12,94.12,0,0,0,0-133.11L449,90.09l-66.56,66.56a94.14,94.14,0,0,0,0,133.11L524.81,432.12l6.33-23.71ZM449,296.22l36.5-36.51a51.57,51.57,0,0,0,0-73L449,150.2l-36.5,36.49a51.57,51.57,0,0,0,0,73Z"/></g></g></svg>