<svg xmlns="http://www.w3.org/2000/svg" viewBox="0 0 1076.31 1242.84"><defs><style>.cls-1{fill:#c8a45d;}</style></defs><title>Fichier 3</title><g id="Calque_2" data-name="Calque 2"><g id="Layer_1" data-name="Layer 1"><path class="cls-1" d="M610.23,427.22,654,383.45a163.71,163.71,0,0,0,0-231.58L538.15,36.08,422.37,151.87a163.68,163.68,0,0,0,0,231.58l191.41,191.4,7.63-28.43-181-181a138.19,138.19,0,0,1,0-195.56l97.78-97.8L636,169.88a138.17,138.17,0,0,1,0,195.56l-43.7,43.71,18,18ZM406,461.92l-16-59.79a163.54,163.54,0,0,0-76.3-99.46h0a163.3,163.3,0,0,0-124.3-16.33L31.17,328.75,73.56,486.94a163.55,163.55,0,0,0,76.31,99.46h0a163.29,163.29,0,0,0,124.3,16.34l261.44-70-20.86-20.85L267.52,578.08a137.61,137.61,0,0,1-104.86-13.85h-.07A137.6,137.6,0,0,1,98.22,480.3L62.45,346.76,196,310.93a138.34,138.34,0,0,1,169.3,97.78l16,59.74L406,461.86Zm150.36,91.57-68,18.2-18.19,68L520,689.46l68-18.19,18.19-68ZM460,579.33,431.56,587,365.3,834.18a137.83,137.83,0,0,1-64.37,84h-.07A137.86,137.86,0,0,1,196,932L62.45,896.15,98.22,762.6a137.74,137.74,0,0,1,64.44-83.94h.07a137.76,137.76,0,0,1,104.86-13.84l59.78,16L334,656.19l-59.73-16a163.31,163.31,0,0,0-124.29,16.32h0A163.13,163.13,0,0,0,73.63,756L31.22,914.15l158.2,42.4a163.2,163.2,0,0,0,124.3-16.33h0A163,163,0,0,0,390,840.78l70-261.45Zm-56.81,15.21-28.43,7.64L316.13,821a87.44,87.44,0,0,1-106.9,61.78l-84.37-22.6,22.59-84.32a87.42,87.42,0,0,1,107-61.78l59.78,16,6.58-24.65-59.73-16a112.24,112.24,0,0,0-85.61,11.23h0a112.56,112.56,0,0,0-52.58,68.55l-29.18,109,109,29.18a112.63,112.63,0,0,0,85.62-11.24h0a112.57,112.57,0,0,0,52.59-68.53L403.3,594.54Zm-56.81,15.22-43.64,11.66,37.8,10.13,5.84-21.86ZM164.64,621.42a185.75,185.75,0,0,1-27.44-13h-.06A188.84,188.84,0,0,1,49,493.46L0,310.68l182.77-49a188.5,188.5,0,0,1,143.55,18.93h.06a189.16,189.16,0,0,1,25,17.2,189.17,189.17,0,0,1,53-164L538.15,0,672,133.79a189.33,189.33,0,0,1,53,164,189.16,189.16,0,0,1,25-17.2H750A188.53,188.53,0,0,1,893.54,261.7l182.77,49-49,182.78a188.86,188.86,0,0,1-88.18,114.92h0a185.38,185.38,0,0,1-27.45,13,191.61,191.61,0,0,1,27.45,13h0a188.86,188.86,0,0,1,88.18,114.92l49,182.78-182.77,49A188.62,188.62,0,0,1,750,962.22h-.05A189.23,189.23,0,0,1,725,945a189.31,189.31,0,0,1-53,164l-133.8,133.8L404.37,1109a189.15,189.15,0,0,1-53-164,189.23,189.23,0,0,1-25,17.21h-.06a188.59,188.59,0,0,1-143.55,18.93L0,932.16,49,749.38a188.84,188.84,0,0,1,88.16-114.92h.06A186.77,186.77,0,0,1,164.64,621.42Zm255.8-203.89,10.11,37.75,21.8-5.84Zm52.71,52.72-218.79,58.6a87.39,87.39,0,0,1-106.91-61.78l-22.59-84.31,84.37-22.59a87.43,87.43,0,0,1,107,61.77l16,59.73,24.64-6.59-16-59.78a112.74,112.74,0,0,0-138.21-79.79L93.69,364.7l29.17,109a112.64,112.64,0,0,0,52.59,68.55h0a112.65,112.65,0,0,0,85.61,11.24l233-62.47-20.86-20.85Zm-165.59,18-16-59.78a61.67,61.67,0,0,0-75.75-43.77l-59.72,16,16,59.78a61.67,61.67,0,0,0,75.74,43.78ZM462.6,668,455,696.43l181,181a138.2,138.2,0,0,1,0,195.57l-97.79,97.79L440.37,1073a138.18,138.18,0,0,1,0-195.57l43.7-43.76-18-18L422.3,859.39a163.7,163.7,0,0,0,0,231.59l115.79,115.79L653.88,1091a163.7,163.7,0,0,0,0-231.59L462.46,668Zm-15.22,56.8-7.63,28.44L599.93,913.41a87.38,87.38,0,0,1,0,123.55l-61.78,61.78L476.38,1037a87.38,87.38,0,0,1,0-123.55l43.71-43.7-18-18-43.7,43.71a112.84,112.84,0,0,0,0,159.56l79.77,79.79L617.94,1055a112.89,112.89,0,0,0,0-159.56L447.32,724.79ZM432.17,781.6,420.5,825.19l27.63-27.63ZM307.56,754.47l-59.72-16a61.68,61.68,0,0,0-75.74,43.77l-16,59.8,59.72,16a61.72,61.72,0,0,0,75.75-43.71l16-59.78Zm233.21-44.39,20.86,20.86L808.85,664.7a137.76,137.76,0,0,1,104.87,13.84h0a137.63,137.63,0,0,1,64.39,83.94L1013.92,896,880.38,931.85a138.34,138.34,0,0,1-169.32-97.79l-16-59.73-24.66,6.59,16,59.79a163.54,163.54,0,0,0,76.3,99.46h0A163.32,163.32,0,0,0,887,956.5l158.19-42.41L1002.8,755.9a163.47,163.47,0,0,0-76.29-99.46h0a163.61,163.61,0,0,0-124.3-16.34l-261.44,70Zm41.59,41.6,20.85,20.85L822,713.93a87.43,87.43,0,0,1,107,61.78L951.59,860l-84.38,22.59a87.44,87.44,0,0,1-107-61.77l-16-59.73-24.64,6.58,16,59.78a112.72,112.72,0,0,0,138.2,79.79l109-29.18-29.18-109A112.59,112.59,0,0,0,901,700.52h0a112.5,112.5,0,0,0-85.61-11.24l-233,62.47Zm41.6,41.6,31.91,31.91-10.12-37.75Zm-85.81,94.37-43.7,43.77a61.83,61.83,0,0,0,0,87.48l43.7,43.71,43.72-43.71a61.83,61.83,0,0,0,0-87.48Zm78.17-224.19,28.44-7.64L711,408.6a137.74,137.74,0,0,1,64.45-83.94h.06a137.83,137.83,0,0,1,104.87-13.85l133.54,35.83L978.16,480.18a137.8,137.8,0,0,1-64.44,83.95h-.07A137.77,137.77,0,0,1,808.79,578L749,562l-6.59,24.65,59.74,16a163.31,163.31,0,0,0,124.29-16.33h0a163.12,163.12,0,0,0,76.31-99.46l42.39-158.2L887,286.23a163.33,163.33,0,0,0-124.3,16.31h0A163.23,163.23,0,0,0,686.35,402Zm56.82-15.22,28.42-7.64,58.62-218.78a87.45,87.45,0,0,1,107-61.78l84.37,22.6L928.92,467a87.44,87.44,0,0,1-107,61.79l-59.79-16-6.57,24.64,59.72,16a112.58,112.58,0,0,0,85.62-11.23h0a112.64,112.64,0,0,0,52.59-68.55l29.17-109-109-29.18a112.5,112.5,0,0,0-85.61,11.24h0a112.5,112.5,0,0,0-52.59,68.53l-62.46,233ZM729.94,633l43.64-11.66-37.8-10.13-5.84,21.86Zm38.81,121.44,16,59.8A61.73,61.73,0,0,0,860.5,858l59.73-16-16-59.8a61.72,61.72,0,0,0-75.74-43.7l-59.72,16ZM655.87,417.41,628.24,445l16,16Zm-19.3,72L476.38,329.25a87.38,87.38,0,0,1,0-123.55l61.77-61.78,61.78,61.78a87.38,87.38,0,0,1,0,123.55L556.16,373l18,18,43.78-43.77a112.88,112.88,0,0,0,0-159.55l-79.79-79.79L458.38,187.7a112.83,112.83,0,0,0,0,159.55L629,517.87l7.64-28.45Zm132.18-1.29,59.72,16a61.68,61.68,0,0,0,75.74-43.78l16-59.79-59.73-16a61.75,61.75,0,0,0-75.75,43.72l-16,59.78ZM538.09,355l43.71-43.71a61.82,61.82,0,0,0,0-87.47l-43.71-43.71-43.7,43.71a61.82,61.82,0,0,0,0,87.47Z"/></g></g></svg>