<svg xmlns="http://www.w3.org/2000/svg" viewBox="0 0 1542.71 1542.78"><defs><style>.cls-1{fill:#353e3f;}.cls-2{fill:#c8a45d;}</style></defs><title>Fichier 1</title><g id="Calque_2" data-name="Calque 2"><g id="Layer_1" data-name="Layer 1"><path class="cls-1" d="M0,1537.93V1346.09H4.16l127.6,146.7v-146.7H151v191.84h-4.35L19.81,1392.46v145.47H0Zm378.23-191.84,89.53,191.84H447.15l-30-63.08H334l-29.81,63.08H282.87l90.58-191.84Zm-2.41,40.22-33,69.86h65.86l-32.83-69.86Zm204.81-21.54v-18.68h105v18.68H642.84v173.16H623.35V1364.77H580.63Zm235.86-18.68h19.26v115.85c0,13.72.25,22.29.8,25.7.93,7.58,3.17,13.92,6.65,19s8.8,9.38,16,12.8a50.49,50.49,0,0,0,21.78,5.14,43.3,43.3,0,0,0,18.26-4,39.88,39.88,0,0,0,14.59-11.22,45.54,45.54,0,0,0,8.57-17.33q2-7.35,2-30V1346.14h19.24v115.8q0,25.71-5,41.54T918.57,1531q-15.11,11.74-36.51,11.75c-15.52,0-28.74-3.67-39.8-11.11s-18.5-17.13-22.22-29.37c-2.36-7.52-3.55-20.93-3.55-40.42V1346.09Zm277.59,0h38.31q32,0,43.4,2.61c11.42,2.61,20.67,8.13,27.82,16.76s10.74,19.12,10.74,31.6c0,10.43-2.43,19.61-7.39,27.5a45.59,45.59,0,0,1-21.12,18c-9.13,4-21.78,6.09-37.87,6.21l69,89.21h-23.52l-69-89.21h-11v89.21h-19.24V1346.09Zm19.25,18.68V1430l33.16.26c12.84,0,22.35-1.19,28.49-3.67a29.78,29.78,0,0,0,14.41-11.68,32.56,32.56,0,0,0,5.15-17.94,30.9,30.9,0,0,0-5.29-17.57,28.58,28.58,0,0,0-13.77-11.24c-5.65-2.29-15.09-3.35-28.25-3.35h-33.9Zm339.85-16.26,89.53,191.85H1522.1l-30-63.08H1409l-29.8,63.08h-21.36l90.58-191.85Zm-3.33,40.91-33,69.86h65.86l-32.83-69.86Z"/><path class="cls-2" d="M805.88,427.22l43.71-43.77a163.68,163.68,0,0,0,0-231.58L733.79,36.08,618,151.87a163.66,163.66,0,0,0,0,231.58l191.4,191.4,7.63-28.43-181-181a138.19,138.19,0,0,1,0-195.56l97.78-97.8,97.78,97.8a138.14,138.14,0,0,1,0,195.56L788,409.15l18,18Zm-204.25,34.7-16-59.79a163.55,163.55,0,0,0-76.31-99.46h0A163.28,163.28,0,0,0,385,286.34l-158.2,42.41,42.4,158.19a163.54,163.54,0,0,0,76.3,99.46h0a163.32,163.32,0,0,0,124.31,16.34l261.43-70L710.4,511.84,463.17,578.08A137.63,137.63,0,0,1,358.3,564.23h-.06a137.62,137.62,0,0,1-64.38-83.93L258.1,346.76l133.54-35.83A138.35,138.35,0,0,1,561,408.71l16,59.74,24.66-6.59ZM752,553.49l-68,18.2-18.19,68,49.79,49.78,68-18.19,18.2-68Zm-96.35,25.84L627.21,587,561,834.18a137.88,137.88,0,0,1-64.38,84h-.06A137.89,137.89,0,0,1,391.64,932L258.1,896.15,293.86,762.6a137.81,137.81,0,0,1,64.44-83.94h.07a137.77,137.77,0,0,1,104.86-13.84l59.79,16,6.58-24.64-59.73-16a163.3,163.3,0,0,0-124.29,16.32h0A163.14,163.14,0,0,0,269.27,756l-42.41,158.2,158.2,42.4a163.2,163.2,0,0,0,124.3-16.33h0a163.09,163.09,0,0,0,76.3-99.44l70-261.45Zm-56.81,15.21-28.43,7.64L511.77,821a87.43,87.43,0,0,1-106.9,61.78l-84.37-22.6,22.59-84.32a87.43,87.43,0,0,1,107-61.78l59.79,16,6.58-24.65-59.73-16a112.27,112.27,0,0,0-85.62,11.23h0a112.54,112.54,0,0,0-52.57,68.55l-29.19,109,109,29.18a112.59,112.59,0,0,0,85.61-11.24h0a112.58,112.58,0,0,0,52.6-68.53L599,594.54ZM542,609.76l-43.64,11.66,37.8,10.13L542,609.69ZM360.29,621.42a186.34,186.34,0,0,1-27.45-13h0a188.81,188.81,0,0,1-88.17-114.92l-49-182.78,182.77-49A188.52,188.52,0,0,1,522,280.63h0a189.16,189.16,0,0,1,25,17.2,189.31,189.31,0,0,1,53-164L733.79,0l133.8,133.79a189.31,189.31,0,0,1,53,164,189.06,189.06,0,0,1,25-17.2h.06a188.5,188.5,0,0,1,143.55-18.93l182.78,49-49,182.78a188.89,188.89,0,0,1-88.17,114.92h0a186.34,186.34,0,0,1-27.45,13,192.63,192.63,0,0,1,27.45,13h0A188.89,188.89,0,0,1,1223,749.38l49,182.78-182.78,49a188.59,188.59,0,0,1-143.55-18.93h-.06a189.13,189.13,0,0,1-25-17.21,189.29,189.29,0,0,1-53,164l-133.8,133.8L600,1109a189.29,189.29,0,0,1-53-164,189.23,189.23,0,0,1-25,17.21h0a188.6,188.6,0,0,1-143.56,18.93l-182.77-49,49-182.78a188.81,188.81,0,0,1,88.17-114.92h0A187.36,187.36,0,0,1,360.29,621.42Zm255.8-203.89,10.11,37.75L648,449.44Zm52.7,52.72L450,528.85a87.4,87.4,0,0,1-106.92-61.78L320.5,382.76l84.37-22.59a87.43,87.43,0,0,1,107,61.77l16,59.73,24.64-6.59-16-59.78a112.74,112.74,0,0,0-138.21-79.79l-109,29.19,29.17,109a112.67,112.67,0,0,0,52.59,68.55h0a112.67,112.67,0,0,0,85.62,11.24l233-62.47-20.85-20.85Zm-165.58,18-16-59.78a61.68,61.68,0,0,0-75.75-43.77l-59.73,16,16,59.78a61.68,61.68,0,0,0,75.74,43.78ZM658.24,668l-7.64,28.44,181,181a138.2,138.2,0,0,1,0,195.57l-97.8,97.79L636,1073a138.2,138.2,0,0,1,0-195.57l43.71-43.76-18-18L618,859.39A163.67,163.67,0,0,0,618,1091l115.79,115.79L849.53,1091a163.72,163.72,0,0,0,0-231.59L658.11,668ZM643,724.79l-7.64,28.44L795.57,913.41a87.38,87.38,0,0,1,0,123.55l-61.78,61.78L672,1037a87.38,87.38,0,0,1,0-123.55l43.7-43.7-18-18L654,895.41A112.84,112.84,0,0,0,654,1055l79.77,79.79L813.58,1055a112.89,112.89,0,0,0,0-159.56L643,724.79ZM627.82,781.6l-11.67,43.59,27.62-27.63ZM503.21,754.47l-59.73-16a61.69,61.69,0,0,0-75.74,43.77l-16,59.8,59.73,16a61.73,61.73,0,0,0,75.75-43.71l16-59.78Zm233.2-44.39,20.86,20.86L1004.5,664.7a137.74,137.74,0,0,1,104.86,13.84h.05a137.6,137.6,0,0,1,64.39,83.94L1209.57,896,1076,931.85A138.35,138.35,0,0,1,906.7,834.06l-16-59.73L866,780.92l16,59.79a163.52,163.52,0,0,0,76.31,99.46h0a163.32,163.32,0,0,0,124.3,16.33l158.19-42.41L1198.45,755.9a163.48,163.48,0,0,0-76.3-99.46h0a163.6,163.6,0,0,0-124.3-16.34l-261.44,70ZM778,751.68l20.86,20.85,218.8-58.6a87.43,87.43,0,0,1,107,61.78l22.6,84.32-84.37,22.59a87.44,87.44,0,0,1-107-61.77l-16-59.73-24.65,6.58,16,59.78a112.72,112.72,0,0,0,138.2,79.79l109-29.18-29.19-109a112.57,112.57,0,0,0-52.58-68.54h0A112.53,112.53,0,0,0,1011,689.28L778,751.75Zm41.61,41.6,31.91,31.91L841.4,787.44Zm-85.82,94.37L690.1,931.42a61.8,61.8,0,0,0,0,87.48l43.69,43.71,43.72-43.71a61.83,61.83,0,0,0,0-87.48ZM812,663.46l28.45-7.64L906.65,408.6a137.76,137.76,0,0,1,64.44-83.94h.07A137.81,137.81,0,0,1,1076,310.81l133.55,35.83L1173.8,480.18a137.73,137.73,0,0,1-64.44,83.95h-.06A137.8,137.8,0,0,1,1004.43,578l-59.78-16-6.6,24.65,59.75,16a163.32,163.32,0,0,0,124.29-16.33h0a163.11,163.11,0,0,0,76.3-99.46l42.4-158.2-158.19-42.4a163.33,163.33,0,0,0-124.3,16.31h0A163.18,163.18,0,0,0,882,402Zm56.82-15.22,28.43-7.64,58.61-218.78a87.45,87.45,0,0,1,107-61.78l84.37,22.6L1124.56,467a87.44,87.44,0,0,1-107,61.79l-59.78-16-6.58,24.64,59.73,16a112.55,112.55,0,0,0,85.61-11.23h0a112.57,112.57,0,0,0,52.59-68.55l29.17-109L1069.38,335.4a112.54,112.54,0,0,0-85.62,11.24h0a112.58,112.58,0,0,0-52.59,68.53l-62.46,233ZM925.58,633l43.64-11.66-37.8-10.13-5.84,21.86Zm38.81,121.44,16,59.8A61.73,61.73,0,0,0,1056.15,858l59.73-16-16-59.8a61.72,61.72,0,0,0-75.74-43.7l-59.73,16ZM851.52,417.41,823.88,445l16,16Zm-19.31,72L672,329.25a87.38,87.38,0,0,1,0-123.55l61.76-61.78,61.78,61.78a87.38,87.38,0,0,1,0,123.55L751.8,373l18,18,43.77-43.77a112.88,112.88,0,0,0,0-159.55l-79.79-79.79L654,187.7a112.83,112.83,0,0,0,0,159.55L824.64,517.87l7.64-28.45Zm132.18-1.29,59.73,16a61.68,61.68,0,0,0,75.74-43.78l16-59.79-59.73-16a61.75,61.75,0,0,0-75.75,43.72l-16,59.78ZM733.74,355l43.71-43.71a61.84,61.84,0,0,0,0-87.47l-43.71-43.71L690,223.77a61.84,61.84,0,0,0,0,87.47Z"/></g></g></svg>